<svg xmlns="http://www.w3.org/2000/svg" xmlns:xlink="http://www.w3.org/1999/xlink" width="1080" zoomAndPan="magnify" viewBox="0 0 810 1439.999935" height="1920" preserveAspectRatio="xMidYMid meet" version="1.0"><defs><clipPath id="08eaa62fe7"><path d="M 121.605469 92 L 684 92 L 684 1358.980469 L 121.605469 1358.980469 Z M 121.605469 92 " clip-rule="nonzero"/></clipPath><clipPath id="094c4a1994"><path d="M 0.605469 1 L 561 1 L 561 1266 L 0.605469 1266 Z M 0.605469 1 " clip-rule="nonzero"/></clipPath><clipPath id="50484b9803"><rect x="0" width="563" y="0" height="1267"/></clipPath></defs><g clip-path="url(#08eaa62fe7)"><g transform="matrix(1, 0, 0, 1, 121, 92)"><g clip-path="url(#50484b9803)"><g clip-path="url(#094c4a1994)"><path fill="#f7c321" d="M 294.933594 260.097656 C 294.210938 260.167969 293.628906 260.242188 293.195312 260.242188 C 293.195312 260.242188 289.574219 262.050781 286.246094 266.179688 C 282.988281 270.304688 271.691406 288.191406 261.121094 297.894531 C 250.546875 307.667969 219.992188 330.40625 219.992188 330.40625 C 219.992188 330.40625 220.5 330.695312 226.941406 335.183594 C 233.386719 339.601562 267.78125 372.328125 267.78125 372.328125 C 267.78125 372.328125 268.070312 371.675781 269.445312 371.023438 C 270.75 370.375 272.269531 371.386719 275.382812 374.644531 C 278.496094 377.976562 283.492188 391.007812 284.289062 392.53125 C 285.085938 393.976562 289.285156 394.628906 293.703125 395.5 C 298.191406 396.292969 299.785156 394.847656 303.621094 394.195312 C 307.386719 393.542969 312.890625 397.527344 312.890625 397.527344 C 312.890625 397.527344 313.6875 395.0625 316.367188 389.921875 C 318.972656 384.78125 326.429688 365.449219 326.429688 365.449219 L 327.082031 347.636719 C 327.589844 334.097656 331.210938 324.320312 331.210938 324.320312 C 331.210938 324.320312 331.210938 321.351562 326.574219 310.128906 C 323.605469 302.890625 317.8125 283.339844 313.976562 270.234375 C 306.664062 265.816406 304.5625 265.382812 304.5625 265.382812 C 304.5625 265.382812 301.015625 264.367188 295.222656 260.386719 C 295.222656 260.242188 295.078125 260.167969 294.933594 260.097656 Z M 206.089844 483.617188 C 200.371094 476.449219 195.011719 469.425781 191.246094 463.921875 C 178.863281 445.386719 152.941406 412.660156 152.941406 412.660156 C 152.941406 412.660156 160.546875 456.246094 157.578125 473.769531 C 154.609375 491.292969 147.367188 499.183594 143.386719 508.816406 C 139.402344 518.375 137.085938 541.542969 137.085938 541.542969 C 137.085938 541.542969 138.390625 542.050781 138.390625 543.714844 C 138.390625 580.714844 129.84375 619.742188 147.367188 655.65625 C 146.355469 656.019531 145.992188 656.597656 145.992188 656.597656 C 145.992188 656.597656 153.882812 677.089844 150.265625 686.574219 C 146.714844 696.058594 133.753906 700.765625 123.90625 700.113281 C 114.058594 699.390625 107.398438 696.640625 107.398438 696.640625 C 107.398438 696.640625 90.527344 701.492188 82.996094 707.285156 C 75.46875 713.074219 71.121094 717.566406 71.121094 717.566406 C 71.121094 717.566406 59.394531 731.683594 54.105469 734.796875 C 48.820312 737.910156 43.824219 738.128906 42.160156 739.792969 C 40.496094 741.460938 36.585938 749.714844 30.429688 753.914062 C 24.347656 758.039062 18.554688 757.96875 18.554688 757.96875 C 18.554688 757.96875 14.136719 761.007812 10.953125 759.851562 C 7.765625 758.691406 7.40625 757.097656 7.40625 757.097656 C 7.40625 757.097656 1.324219 755 0.960938 751.160156 C 0.671875 747.253906 4.21875 744.066406 4.21875 744.066406 C 4.21875 744.066406 6.171875 741.820312 5.957031 740.082031 C 5.667969 738.347656 6.171875 735.378906 6.171875 735.378906 C 6.171875 735.378906 6.679688 734.871094 6.246094 733.058594 C 5.8125 731.25 5.738281 727.050781 6.246094 726.472656 C 6.824219 725.820312 14.429688 711.121094 16.527344 704.675781 C 18.628906 698.160156 23.550781 694.683594 32.023438 689.832031 C 40.496094 684.980469 42.8125 679.40625 42.8125 679.40625 C 42.8125 679.40625 42.378906 676.582031 42.957031 675.785156 C 78.941406 618.292969 75.179688 668.039062 72.644531 599.035156 C 73.003906 578.542969 68.371094 546.972656 68.660156 544.148438 C 69.023438 541.324219 69.3125 540.023438 70.183594 540.023438 L 71.195312 540.023438 C 71.195312 540.023438 61.277344 495.058594 61.636719 450.457031 C 61.925781 405.851562 65.621094 382.03125 64.605469 372.835938 C 63.59375 363.566406 63.953125 343.726562 65.910156 327.21875 C 67.863281 310.710938 68.878906 300.136719 78.4375 294.488281 C 87.992188 288.84375 94.945312 286.234375 94.945312 286.234375 C 94.945312 286.234375 93.929688 259.15625 96.609375 239.96875 C 99.21875 220.78125 98.277344 216.871094 98.277344 216.871094 C 98.277344 216.871094 97.625 213.25 98.636719 206.296875 C 99.652344 199.347656 117.824219 117.746094 120.070312 108.476562 C 122.386719 99.207031 138.390625 84.21875 142.515625 83.351562 C 146.644531 82.554688 173.578125 83.640625 176.257812 84.148438 C 178.863281 84.65625 184.511719 84.4375 185.164062 86.753906 C 185.816406 89.070312 185.816406 89.578125 185.816406 89.578125 C 185.816406 89.578125 186.828125 89.433594 187.480469 90.230469 C 188.132812 91.027344 189 99.496094 188.640625 102.613281 C 188.351562 105.726562 188.132812 107.898438 188.132812 107.898438 C 188.132812 107.898438 193.78125 108.042969 196.53125 111.371094 C 199.355469 114.703125 199.355469 117.671875 198.703125 120.277344 C 198.054688 122.957031 197.402344 125.78125 196.023438 127.230469 C 194.722656 128.75 192.550781 131.5 192.550781 131.5 C 192.550781 131.5 191.390625 134.179688 190.59375 136.136719 C 189.796875 138.089844 190.59375 137.800781 188.421875 140.40625 C 186.324219 143.085938 173.070312 152.28125 168.582031 155.105469 C 164.09375 157.929688 164.09375 157.929688 161.34375 160.390625 C 158.519531 162.855469 155.042969 190.804688 152.4375 200 C 149.828125 209.265625 149.828125 215.203125 149.46875 220.488281 C 149.105469 225.777344 147.152344 228.09375 147.152344 228.09375 C 147.152344 228.09375 155.910156 272.695312 155.550781 276.171875 C 155.1875 279.648438 155.550781 279.5 155.550781 279.5 C 155.550781 279.5 189.4375 244.3125 203.628906 238.738281 C 217.820312 233.089844 218.832031 232.800781 218.832031 232.800781 C 218.832031 232.800781 223.179688 220.925781 231.144531 209.265625 C 224.046875 203.546875 218.761719 199.203125 216.949219 197.609375 C 209.710938 191.453125 203.339844 170.382812 204.425781 166.328125 C 205.511719 162.273438 218.542969 138.671875 220.136719 136.496094 C 221.730469 134.324219 224.121094 129.257812 226.4375 129.691406 C 228.824219 130.125 229.261719 130.34375 229.261719 130.34375 C 229.261719 130.34375 229.550781 129.402344 230.5625 129.183594 C 231.578125 128.96875 239.542969 131.9375 242.222656 133.675781 C 244.898438 135.339844 246.710938 136.496094 246.710938 136.496094 C 246.710938 136.496094 249.316406 131.5 253.589844 130.488281 C 255.832031 129.910156 257.644531 130.054688 259.164062 130.558594 C 252.429688 122.449219 244.175781 116.660156 238.382812 109.417969 C 226.21875 94.355469 224.914062 54.75 244.175781 28.683594 C 263.871094 2.039062 304.707031 -10.5625 344.386719 17.75 C 349.382812 21.296875 362.273438 35.925781 372.121094 48.523438 C 382.039062 61.050781 380.734375 81.832031 404.558594 86.390625 C 404.558594 86.390625 425.699219 97.617188 445.179688 103.550781 C 464.65625 109.488281 473.5625 105.507812 496.730469 115.425781 C 519.828125 125.347656 531.125 123.683594 543.652344 157.421875 C 556.179688 191.09375 556.902344 197.390625 557.046875 205.5 C 557.191406 213.613281 555.382812 228.164062 555.382812 229.105469 C 555.382812 230.046875 566.386719 261.253906 554.511719 302.238281 C 542.636719 343.21875 524.464844 418.234375 522.292969 426.632812 C 520.121094 435.03125 522.148438 440.679688 522.796875 451.542969 C 523.449219 462.476562 523.59375 464.429688 523.59375 464.429688 C 523.59375 464.429688 529.53125 465.589844 530.691406 469.0625 C 531.851562 472.539062 533.007812 475 531.34375 477.96875 C 529.675781 480.9375 529.171875 480.792969 529.171875 483.617188 C 529.171875 486.441406 530.691406 490.570312 529.824219 492.886719 C 528.953125 495.203125 529.460938 503.3125 528.300781 505.265625 C 527.144531 507.222656 527.648438 511.710938 526.203125 513.667969 C 524.753906 515.621094 525.550781 521.921875 524.390625 523.730469 C 523.234375 525.542969 521.566406 526.84375 521.566406 526.84375 C 521.566406 526.84375 539.089844 522.066406 539.089844 566.308594 C 539.089844 610.546875 537.785156 621.117188 538.4375 646.894531 C 538.726562 659.496094 546.839844 739.9375 549.226562 750.367188 C 549.226562 750.367188 538.003906 749.207031 524.320312 750.582031 C 522.652344 764.269531 521.132812 779.039062 520.625 789.683594 C 519.324219 815.460938 525.914062 820.09375 526.925781 838.558594 C 527.941406 857.019531 529.894531 866.652344 529.894531 866.652344 C 529.894531 866.652344 550.097656 892.066406 553.066406 927.472656 C 556.035156 962.808594 552.773438 988.585938 549.808594 1010.453125 C 546.839844 1032.246094 547.5625 1044.988281 547.5625 1044.988281 C 547.5625 1044.988281 548.140625 1046.367188 548.359375 1048.464844 C 548.574219 1050.566406 546.691406 1124.636719 546.839844 1135.210938 C 546.984375 1145.78125 551.761719 1150.558594 551.472656 1160.839844 C 551.183594 1171.050781 548.140625 1177.710938 548.140625 1177.710938 C 548.140625 1177.710938 553.136719 1196.898438 552.773438 1205.445312 C 552.414062 1214.0625 551.109375 1221.953125 551.109375 1221.953125 C 551.109375 1221.953125 555.09375 1234.695312 553.210938 1239.476562 C 551.398438 1244.253906 549.082031 1247.078125 549.082031 1247.078125 C 549.082031 1247.078125 552.195312 1250.554688 547.925781 1254.972656 C 543.652344 1259.386719 537.207031 1258.445312 537.207031 1258.445312 C 537.207031 1258.445312 535.035156 1262.285156 531.125 1262.285156 C 527.144531 1262.285156 523.015625 1260.617188 523.015625 1260.617188 C 523.015625 1260.617188 513.964844 1265.757812 510.777344 1264.746094 C 507.664062 1263.730469 506.652344 1262.9375 506.652344 1262.9375 C 506.652344 1262.9375 501.875 1264.746094 497.238281 1265.253906 C 492.605469 1265.757812 491.15625 1263.226562 491.15625 1263.226562 C 491.15625 1263.226562 483.046875 1266.992188 476.964844 1265.6875 C 470.882812 1264.382812 469.363281 1261.558594 469.363281 1259.605469 C 469.363281 1257.578125 475.660156 1250.191406 476.167969 1249.324219 C 476.675781 1248.527344 478.847656 1238.101562 482.46875 1233.464844 C 486.089844 1228.832031 488.117188 1215.945312 488.117188 1215.945312 C 488.117188 1215.945312 493.328125 1185.171875 493.257812 1184.375 C 491.734375 1169.023438 490.578125 1175.46875 492.75 1146.867188 C 494.558594 1135.5 489.78125 1117.253906 494.054688 1095.746094 C 496.007812 1085.828125 491.734375 1051.289062 491.882812 1049.046875 C 492.027344 1046.726562 492.75 1044.050781 492.75 1044.050781 L 493.910156 1043.398438 C 493.910156 1043.398438 485.652344 1008.570312 478.050781 980.402344 C 470.449219 952.308594 468.132812 923.5625 469.144531 909.011719 C 470.160156 894.457031 468.78125 892.789062 468.78125 892.789062 C 468.78125 892.789062 449.957031 865.710938 447.640625 853.835938 C 445.324219 841.960938 444.308594 826.105469 444.308594 826.105469 C 444.308594 826.105469 430.40625 800.328125 428.453125 783.457031 C 428.089844 780.703125 427.945312 777.664062 427.871094 774.476562 C 400.574219 772.8125 374.582031 766.730469 374.945312 761.878906 C 375.59375 752.898438 351.84375 711.195312 350.542969 706.050781 C 350.324219 705.183594 350.109375 702.867188 349.964844 699.390625 L 348.515625 699.175781 C 348.515625 699.175781 341.925781 656.238281 337.292969 635.746094 C 332.65625 615.253906 334.613281 590.851562 330.628906 590.851562 C 326.648438 590.851562 301.59375 596.789062 288.996094 598.09375 C 276.46875 599.398438 257.933594 586.21875 251.996094 584.191406 C 246.058594 582.164062 228.246094 578.253906 228.246094 574.921875 C 222.816406 571.304688 194.722656 544.441406 194.722656 544.441406 C 194.722656 544.441406 212.390625 491.292969 206.089844 483.617188 Z M 276.46875 150.980469 C 277.917969 154.816406 280.164062 169.878906 280.667969 174.945312 L 280.667969 175.234375 C 285.160156 173.351562 303.910156 167.269531 303.910156 167.269531 C 303.910156 167.269531 279.65625 155.757812 276.46875 150.980469 Z M 276.46875 150.980469 " fill-opacity="1" fill-rule="evenodd"/></g></g></g></g></svg>