<svg xmlns="http://www.w3.org/2000/svg" xmlns:xlink="http://www.w3.org/1999/xlink" width="1080" zoomAndPan="magnify" viewBox="0 0 810 1439.999935" height="1920" preserveAspectRatio="xMidYMid meet" version="1.0"><path fill="#f7c321" d="M 674.425781 1145.191406 C 679.96875 1140.9375 685.257812 1136.289062 691.148438 1132.585938 C 693.402344 1131.160156 697.589844 1130.632812 699.84375 1131.78125 C 709.183594 1136.542969 717.878906 1141.996094 728.136719 1133.277344 C 730.113281 1131.621094 734.578125 1132.863281 737.890625 1132.886719 C 743.34375 1132.910156 748.242188 1134.105469 752.886719 1128.238281 C 757.695312 1122.167969 771.152344 1127.527344 774.304688 1135.253906 C 776.074219 1139.625 779.296875 1143.375 781.574219 1147.5625 C 783.691406 1151.472656 785.230469 1155.683594 787.394531 1159.546875 C 790.84375 1165.734375 794.707031 1171.691406 798.160156 1177.859375 C 805.472656 1190.945312 799.101562 1204.496094 797.859375 1217.421875 C 797.167969 1224.832031 788.679688 1231.476562 783.644531 1238.449219 C 782.148438 1240.566406 780.171875 1242.40625 779.019531 1244.683594 C 773.175781 1256.253906 761.675781 1263.382812 749.183594 1260.738281 C 735.128906 1257.769531 721.398438 1253.125 707.550781 1249.054688 C 694.828125 1245.304688 684.039062 1249.144531 672.746094 1255.332031 C 641.160156 1272.652344 608.910156 1288.847656 570.957031 1279.441406 C 556.601562 1275.898438 543.789062 1278.542969 532.515625 1287.722656 C 523.292969 1295.21875 513.285156 1296.324219 502.496094 1292.78125 C 481.058594 1285.71875 459.734375 1278.242188 438.203125 1271.433594 C 433.464844 1269.941406 427.945312 1269.734375 422.976562 1270.375 C 402.570312 1273.066406 382.304688 1276.863281 361.855469 1279.050781 C 354.148438 1279.855469 346.097656 1277.230469 338.160156 1276.359375 C 321.070312 1274.496094 303.980469 1271.847656 286.839844 1271.296875 C 276.925781 1270.976562 273.777344 1267.59375 274.511719 1258.390625 C 275.339844 1248.453125 275.59375 1238.449219 276.304688 1228.511719 C 276.652344 1223.496094 277.042969 1219.882812 270.945312 1216.6875 C 259.972656 1210.960938 255.328125 1208.890625 244.054688 1210.707031 C 243.410156 1210.820312 242.652344 1211.050781 242.078125 1210.867188 C 230.183594 1206.910156 220.15625 1210.339844 209.597656 1216.527344 C 205.847656 1218.734375 198.234375 1214.386719 192.390625 1213.03125 C 192.273438 1212.039062 192.160156 1211.050781 192.042969 1210.039062 C 189.953125 1212.453125 187.351562 1214.59375 185.855469 1217.308594 C 178.792969 1230.097656 169.410156 1238.863281 153.605469 1238.101562 C 145.371094 1237.710938 141.230469 1241.667969 142.402344 1250.273438 C 142.542969 1251.238281 142.3125 1252.25 142.21875 1253.238281 C 140.289062 1273.828125 139.136719 1275.574219 118.59375 1274.402344 C 102.882812 1273.480469 91.910156 1280.660156 81.789062 1290.988281 C 72.105469 1300.855469 62.191406 1309.828125 46.617188 1308.792969 C 34.75 1308.011719 25.617188 1304.398438 20.648438 1292.734375 C 19.3125 1289.609375 16.324219 1286.917969 13.539062 1284.730469 C 4.109375 1277.347656 4.0625 1271.917969 14.988281 1266.488281 C 27.480469 1260.300781 40.683594 1255.5625 53.378906 1249.765625 C 58.511719 1247.417969 63.132812 1243.96875 68.632812 1240.65625 C 61.476562 1232.949219 55.566406 1227.175781 50.34375 1220.804688 C 44.15625 1213.238281 43.511719 1205.070312 50.070312 1197.179688 C 73.554688 1169 97.109375 1141.28125 131.015625 1124.238281 C 141.804688 1118.808594 151.097656 1108.710938 158.484375 1098.796875 C 167.636719 1086.511719 179.117188 1082.761719 193.078125 1083.199219 C 207.734375 1083.660156 222.339844 1084.902344 236.992188 1085.109375 C 252.957031 1085.339844 268.945312 1084.992188 284.886719 1084.347656 C 287.460938 1084.257812 290.660156 1081.910156 292.316406 1079.679688 C 302.945312 1065.300781 312.214844 1049.796875 323.898438 1036.339844 C 332.824219 1026.105469 340.761719 1015.84375 344.925781 1002.917969 C 351.089844 983.777344 361.761719 967.90625 376.601562 954.152344 C 394.128906 937.863281 402.730469 917.113281 402.25 892.914062 C 401.71875 866.621094 400.453125 840.328125 401.007812 814.058594 C 401.304688 800.996094 404.640625 787.953125 407.355469 775.046875 C 407.90625 772.515625 411.679688 769.871094 414.53125 768.789062 C 418.464844 767.316406 422.929688 766.8125 427.183594 766.695312 C 447.058594 766.167969 447.105469 766.28125 454.695312 747.464844 C 457.179688 741.300781 459.433594 735.019531 461.875 728.855469 C 466.796875 716.433594 467.074219 704.335938 460.378906 692.304688 C 458.332031 688.601562 457.273438 684.253906 456.285156 680.066406 C 453.960938 670.289062 458.03125 663.871094 467.441406 660.902344 C 472.824219 659.203125 478.414062 658.191406 483.820312 656.535156 C 497.527344 652.324219 507.488281 648 504.476562 628.792969 C 475.46875 620.695312 445.519531 615.679688 420.605469 597.183594 C 414.210938 592.421875 407.472656 587.984375 401.605469 582.601562 C 378.992188 561.804688 358.472656 538.800781 331.167969 523.253906 C 317.964844 515.730469 311.132812 502.664062 307.726562 486.675781 C 302.828125 463.675781 293.742188 441.613281 287.53125 418.863281 C 282.539062 400.644531 279.296875 381.941406 275.019531 363.496094 C 273.15625 355.421875 271.269531 347.230469 268.230469 339.523438 C 264.710938 330.53125 268.09375 325.125 275.9375 322.089844 C 285.207031 318.476562 295.03125 316.246094 304.253906 312.542969 C 306.96875 311.4375 310.257812 307.367188 310.257812 304.652344 C 310.28125 290.023438 309.476562 275.367188 308.648438 260.738281 C 308.464844 257.519531 307.40625 254.183594 306.050781 251.214844 C 295.144531 227.382812 284.195312 203.550781 272.902344 179.90625 C 271.453125 176.890625 267.519531 175.167969 265.585938 172.269531 C 263.882812 169.714844 263.378906 166.378906 262.34375 163.390625 C 265.058594 162.582031 267.792969 160.925781 270.441406 161.089844 C 287.09375 162.191406 301.585938 168.519531 308.671875 184.136719 C 315.34375 198.882812 326.566406 203.53125 341.082031 204.609375 C 353.988281 205.601562 357.371094 209.855469 355.160156 222.714844 C 354.242188 228.210938 353.273438 234.308594 350.261719 238.722656 C 343.660156 248.433594 343.109375 258.414062 345.453125 269.25 C 347.203125 277.371094 348.214844 285.699219 350.445312 293.679688 C 351.25 296.554688 354.863281 298.578125 356.910156 301.203125 C 358.359375 303.085938 360.015625 305.25 360.335938 307.480469 C 361.347656 314.039062 362.132812 320.707031 362.269531 327.355469 C 362.476562 340.191406 366.363281 351.671875 371.148438 363.65625 C 376.578125 377.273438 377.335938 392.707031 380.601562 407.246094 C 383.410156 419.738281 383.25 433.46875 393.644531 443.132812 C 396.636719 445.890625 400.363281 447.917969 403.972656 449.917969 C 406.25 451.183594 409.863281 451.023438 411.289062 452.769531 C 420.8125 464.523438 434.246094 461.417969 446.578125 462.9375 C 454.765625 463.925781 462.816406 465.929688 473.304688 467.929688 C 464.195312 453.390625 455.570312 440.878906 448.347656 427.582031 C 444.414062 420.335938 440.457031 411.710938 440.664062 403.820312 C 441.5625 369.890625 444.300781 335.984375 445.769531 302.050781 C 446.898438 275.804688 447.382812 249.488281 447.632812 223.21875 C 447.726562 214.710938 451.84375 210.429688 459.390625 210.15625 C 471.996094 209.695312 484.667969 209.761719 497.230469 210.753906 C 505.441406 211.398438 508.707031 208.683594 512.574219 201.253906 C 520.808594 185.449219 515.539062 174.222656 504.175781 163.503906 C 501.300781 160.789062 498.585938 157.730469 496.5625 154.371094 C 489.203125 142.109375 491.640625 135.96875 505.601562 132.148438 C 514.136719 129.804688 522.050781 131.320312 528.628906 137.808594 C 539.003906 148.046875 550.136719 157.636719 559.5 168.726562 C 562.8125 172.636719 563.386719 180.320312 562.535156 185.886719 C 561.617188 191.890625 556.855469 197.203125 555.105469 203.183594 C 553.335938 209.234375 547.929688 216.433594 557.542969 221.449219 C 558.464844 221.933594 558.164062 225.128906 558.050781 227.039062 C 556.210938 256.941406 554.371094 286.824219 552.390625 316.707031 C 551.515625 330 550.207031 343.273438 549.445312 356.570312 C 549.054688 363.21875 547.261719 367.589844 539.925781 369.636719 C 536.75 370.511719 533.988281 375.15625 532.585938 378.699219 C 532.148438 379.78125 536.773438 383.070312 539.304688 385.046875 C 551.609375 394.710938 564.101562 404.140625 576.339844 413.894531 C 597.132812 430.480469 617.535156 447.527344 638.609375 463.789062 C 648.636719 471.519531 656.136719 479.984375 660.578125 492.382812 C 664.785156 504.089844 671.664062 515.132812 678.957031 525.347656 C 690.179688 541.125 694.09375 558.261719 693.011719 577.171875 C 692.503906 586.144531 692.207031 595.207031 692.894531 604.132812 C 693.746094 614.667969 696.4375 624.238281 702.789062 633.738281 C 709.757812 644.15625 712.792969 657.292969 717.210938 669.347656 C 723.996094 687.910156 726.617188 709.554688 738.003906 724.53125 C 756.546875 748.847656 765.746094 774.703125 768.507812 804.144531 C 769.035156 809.621094 770.484375 815.832031 773.660156 820.0625 C 782.929688 832.484375 779.042969 843.710938 772.625 855.304688 C 770.898438 858.457031 769.3125 861.816406 768.4375 865.265625 C 766.875 871.40625 768.667969 875.6875 775.109375 878.675781 C 789.28125 885.253906 794.984375 897.035156 794.59375 912.539062 C 794.0625 933.171875 786.289062 950.285156 771.726562 964.664062 C 768.070312 968.25 765.703125 975.128906 761.722656 976.027344 C 753.808594 977.84375 745.089844 977.269531 736.808594 976.441406 C 716.128906 974.417969 709.964844 977.957031 708.539062 996.175781 C 707.777344 1005.769531 706.675781 1015.410156 704.628906 1024.816406 C 703.9375 1028.015625 699.933594 1030.476562 696.921875 1032.636719 C 683.1875 1067.878906 667.84375 1103.417969 671.386719 1142.753906 C 672.398438 1143.558594 673.410156 1144.386719 674.425781 1145.191406 Z M 496.449219 765.824219 C 507.121094 765.476562 505.832031 772.816406 505.234375 778.84375 C 503.234375 798.695312 499.277344 818.453125 498.746094 838.328125 C 497.691406 877.574219 498.265625 916.839844 498.519531 956.082031 C 498.609375 970.527344 496.101562 983.824219 486.304688 995.074219 C 478.4375 1004.113281 470.292969 1012.96875 463.070312 1022.492188 C 455.179688 1032.9375 447.589844 1043.058594 446.785156 1057.757812 C 446 1072.203125 455.753906 1082.347656 457.640625 1095.4375 C 458.398438 1100.773438 472.0625 1099.921875 476.433594 1095.550781 C 483.082031 1088.902344 490.8125 1083.3125 497.667969 1076.851562 C 500.425781 1074.226562 503.625 1070.617188 503.992188 1067.1875 C 505.441406 1053.316406 506.59375 1039.308594 506.453125 1025.367188 C 506.316406 1008.96875 506.363281 1005.816406 526.535156 1002.824219 C 548.296875 999.628906 548.503906 999.765625 553.519531 977.820312 C 562.996094 936.367188 572.335938 894.847656 581.445312 853.304688 C 582.386719 848.980469 582.042969 844.078125 581.101562 839.710938 C 577.765625 824.503906 573.554688 809.503906 570.355469 794.300781 C 568.195312 783.949219 570.171875 771.550781 565.113281 763.222656 C 549.859375 738.195312 546.132812 711.074219 544.871094 682.941406 C 544.707031 679.398438 543.789062 675.925781 542.820312 669.804688 C 518.117188 699.320312 506.132812 731.363281 496.449219 765.824219 Z M 631.890625 1134.65625 C 643.414062 1132.011719 648.707031 1127.988281 648.5 1116.714844 C 647.949219 1086.074219 648.796875 1055.410156 648.777344 1024.746094 C 648.777344 1020.078125 648.753906 1013.0625 645.96875 1011.152344 C 637.433594 1005.285156 627.566406 1001.375 618.203125 996.707031 C 627.015625 1012.625 620.433594 1027.898438 620.941406 1042.300781 C 621.46875 1057.25 623.058594 1073.054688 611.832031 1086.121094 C 614.476562 1087.777344 615.71875 1088.878906 617.191406 1089.433594 C 631.363281 1094.882812 631.15625 1094.863281 630.832031 1110.6875 C 630.695312 1118.417969 631.476562 1126.144531 631.890625 1134.65625 " fill-opacity="1" fill-rule="nonzero"/></svg>