<svg xmlns="http://www.w3.org/2000/svg" xmlns:xlink="http://www.w3.org/1999/xlink" width="1000" zoomAndPan="magnify" viewBox="0 0 750 749.999995" height="1000" preserveAspectRatio="xMidYMid meet" version="1.0"><defs><clipPath id="1928a7549f"><path d="M 6.195312 147.78125 L 744 147.78125 L 744 602.21875 L 6.195312 602.21875 Z M 6.195312 147.78125 " clip-rule="nonzero"/></clipPath><clipPath id="6cea0e3c1c"><path d="M 9.140625 152.984375 C 10.761719 155.808594 15.566406 164.167969 19.824219 171.539062 C 24.082031 178.921875 29.722656 188.78125 32.359375 193.457031 C 34.992188 198.132812 38.691406 204.667969 40.5625 207.996094 L 43.972656 214.027344 L 170.539062 214.46875 C 184.433594 241.503906 197.167969 265.859375 207.808594 286.023438 C 218.457031 306.203125 238.8125 344.839844 253.0625 371.886719 C 267.304688 398.945312 279.871094 422.691406 280.980469 424.65625 C 282.101562 426.636719 287.921875 437.5 293.933594 448.808594 C 299.945312 460.125 309.855469 478.90625 315.960938 490.535156 L 327.0625 511.679688 C 333.714844 499.691406 338.199219 491.191406 341.3125 485.035156 C 344.425781 478.882812 360.359375 448.496094 376.707031 417.503906 C 393.070312 386.519531 407.355469 359.355469 408.464844 357.136719 C 409.574219 354.917969 417.636719 339.628906 426.367188 323.148438 C 435.09375 306.667969 445.339844 287.347656 449.132812 280.214844 C 452.925781 273.085938 458.050781 263.425781 460.53125 258.75 C 463.011719 254.074219 465.289062 249.351562 465.589844 248.242188 L 466.136719 246.226562 C 438.757812 246.238281 426.378906 246.480469 420.976562 246.777344 L 411.136719 247.324219 C 399.484375 269.699219 384.246094 298.722656 369.753906 326.273438 C 355.265625 353.820312 341.945312 379.078125 340.15625 382.394531 C 338.367188 385.710938 336.699219 388.441406 336.449219 388.441406 C 336.195312 388.453125 328.683594 374.476562 319.75 357.375 C 310.808594 340.273438 299.394531 318.222656 294.375 308.382812 C 289.355469 298.546875 280.125 280.644531 273.851562 268.589844 C 267.578125 256.53125 258.777344 239.527344 254.28125 230.796875 C 249.785156 222.066406 246.375 214.722656 246.707031 214.46875 C 247.03125 214.230469 275.210938 214.027344 309.316406 214.027344 L 371.328125 214.027344 C 367.714844 206.0625 364.867188 199.515625 362.671875 194.351562 C 360.476562 189.1875 356.921875 180.9375 354.800781 176.011719 C 352.667969 171.097656 348.980469 162.738281 346.597656 157.429688 L 342.265625 147.78125 L 6.195312 147.84375 Z M 406.296875 149.859375 C 405.867188 150.96875 402.394531 158.910156 398.578125 167.519531 C 394.75 176.128906 390.113281 186.792969 388.265625 191.214844 C 386.414062 195.652344 383.46875 202.496094 381.71875 206.421875 L 378.53125 213.574219 C 482.84375 213.957031 504.597656 214.339844 504.597656 214.921875 C 504.597656 215.414062 501.03125 222.554688 496.679688 230.796875 C 492.324219 239.035156 481.605469 259.464844 472.863281 276.183594 C 464.132812 292.917969 454.976562 310.421875 452.519531 315.097656 C 450.0625 319.773438 440.902344 337.078125 432.171875 353.558594 C 423.445312 370.039062 405.769531 403.644531 392.890625 428.234375 C 380.023438 452.839844 369.039062 473.765625 368.480469 474.746094 C 367.929688 475.734375 360.894531 488.914062 352.855469 504.046875 C 344.820312 519.167969 338.238281 531.953125 338.238281 532.441406 C 338.238281 532.929688 342.804688 541.886719 348.398438 552.34375 C 353.976562 562.792969 362.324219 578.292969 366.953125 586.796875 C 371.566406 595.289062 375.550781 602.230469 375.800781 602.21875 C 376.050781 602.207031 382.585938 590.207031 390.339844 575.585938 C 398.078125 560.953125 444.027344 473.71875 492.421875 381.726562 L 580.433594 214.46875 L 707.628906 214.027344 C 713.675781 203.285156 716.847656 197.546875 718.589844 194.351562 C 720.332031 191.15625 722.859375 186.527344 724.207031 184.058594 C 725.554688 181.605469 728.273438 176.773438 730.253906 173.328125 C 732.230469 169.894531 735.976562 163.453125 738.5625 159.015625 C 741.152344 154.59375 743.511719 150.261719 743.789062 149.40625 C 744.277344 147.925781 735.871094 147.84375 575.683594 147.84375 L 407.070312 147.84375 Z M 406.296875 149.859375 " clip-rule="nonzero"/></clipPath><clipPath id="8aaec20c6f"><path d="M 0.195312 0.78125 L 738 0.78125 L 738 455.21875 L 0.195312 455.21875 Z M 0.195312 0.78125 " clip-rule="nonzero"/></clipPath><clipPath id="d40324da17"><path d="M 3.140625 5.984375 C 4.761719 8.808594 9.566406 17.167969 13.824219 24.539062 C 18.082031 31.921875 23.722656 41.78125 26.359375 46.457031 C 28.992188 51.132812 32.691406 57.667969 34.5625 60.996094 L 37.972656 67.027344 L 164.539062 67.46875 C 178.433594 94.503906 191.167969 118.859375 201.808594 139.023438 C 212.457031 159.203125 232.8125 197.839844 247.0625 224.886719 C 261.304688 251.945312 273.871094 275.691406 274.980469 277.65625 C 276.101562 279.636719 281.921875 290.5 287.933594 301.808594 C 293.945312 313.125 303.855469 331.90625 309.960938 343.535156 L 321.0625 364.679688 C 327.714844 352.691406 332.199219 344.191406 335.3125 338.035156 C 338.425781 331.882812 354.359375 301.496094 370.707031 270.503906 C 387.070312 239.519531 401.355469 212.355469 402.464844 210.136719 C 403.574219 207.917969 411.636719 192.628906 420.367188 176.148438 C 429.09375 159.667969 439.339844 140.347656 443.132812 133.214844 C 446.925781 126.085938 452.050781 116.425781 454.53125 111.75 C 457.011719 107.074219 459.289062 102.351562 459.589844 101.242188 L 460.136719 99.226562 C 432.757812 99.238281 420.378906 99.480469 414.976562 99.777344 L 405.136719 100.324219 C 393.484375 122.699219 378.246094 151.722656 363.753906 179.273438 C 349.265625 206.820312 335.945312 232.078125 334.15625 235.394531 C 332.367188 238.710938 330.699219 241.441406 330.449219 241.441406 C 330.195312 241.453125 322.683594 227.476562 313.75 210.375 C 304.808594 193.273438 293.394531 171.222656 288.375 161.382812 C 283.355469 151.546875 274.125 133.644531 267.851562 121.589844 C 261.578125 109.53125 252.777344 92.527344 248.28125 83.796875 C 243.785156 75.066406 240.375 67.722656 240.707031 67.46875 C 241.03125 67.230469 269.210938 67.027344 303.316406 67.027344 L 365.328125 67.027344 C 361.714844 59.0625 358.867188 52.515625 356.671875 47.351562 C 354.476562 42.1875 350.921875 33.9375 348.800781 29.011719 C 346.667969 24.097656 342.980469 15.738281 340.597656 10.429688 L 336.265625 0.78125 L 0.195312 0.84375 Z M 400.296875 2.859375 C 399.867188 3.96875 396.394531 11.910156 392.578125 20.519531 C 388.75 29.128906 384.113281 39.792969 382.265625 44.214844 C 380.414062 48.652344 377.46875 55.496094 375.71875 59.421875 L 372.53125 66.574219 C 476.84375 66.957031 498.597656 67.339844 498.597656 67.921875 C 498.597656 68.414062 495.03125 75.554688 490.679688 83.796875 C 486.324219 92.035156 475.605469 112.464844 466.863281 129.183594 C 458.132812 145.917969 448.976562 163.421875 446.519531 168.097656 C 444.0625 172.773438 434.902344 190.078125 426.171875 206.558594 C 417.445312 223.039062 399.769531 256.644531 386.890625 281.234375 C 374.023438 305.839844 363.039062 326.765625 362.480469 327.746094 C 361.929688 328.734375 354.894531 341.914062 346.855469 357.046875 C 338.820312 372.167969 332.238281 384.953125 332.238281 385.441406 C 332.238281 385.929688 336.804688 394.886719 342.398438 405.34375 C 347.976562 415.792969 356.324219 431.292969 360.953125 439.796875 C 365.566406 448.289062 369.550781 455.230469 369.800781 455.21875 C 370.050781 455.207031 376.585938 443.207031 384.339844 428.585938 C 392.078125 413.953125 438.027344 326.71875 486.421875 234.726562 L 574.433594 67.46875 L 701.628906 67.027344 C 707.675781 56.285156 710.847656 50.546875 712.589844 47.351562 C 714.332031 44.15625 716.859375 39.527344 718.207031 37.058594 C 719.554688 34.605469 722.273438 29.773438 724.253906 26.328125 C 726.230469 22.894531 729.976562 16.453125 732.5625 12.015625 C 735.152344 7.59375 737.511719 3.261719 737.789062 2.40625 C 738.277344 0.925781 729.871094 0.84375 569.683594 0.84375 L 401.070312 0.84375 Z M 400.296875 2.859375 " clip-rule="nonzero"/></clipPath><clipPath id="ce32e35cf5"><rect x="0" width="738" y="0" height="456"/></clipPath><clipPath id="9e1bbb6435"><path d="M 346.40625 147.5625 L 403.585938 147.5625 L 403.585938 214.121094 L 346.40625 214.121094 Z M 346.40625 147.5625 " clip-rule="nonzero"/></clipPath><clipPath id="624d9f92cb"><path d="M 374.996094 214.121094 L 346.40625 147.78125 L 403.585938 147.78125 Z M 374.996094 214.121094 " clip-rule="nonzero"/></clipPath><clipPath id="2ae30141ae"><path d="M 0.40625 0.601562 L 57.585938 0.601562 L 57.585938 67.121094 L 0.40625 67.121094 Z M 0.40625 0.601562 " clip-rule="nonzero"/></clipPath><clipPath id="bff5d09442"><path d="M 28.996094 67.121094 L 0.40625 0.78125 L 57.585938 0.78125 Z M 28.996094 67.121094 " clip-rule="nonzero"/></clipPath><clipPath id="6f8bc09891"><rect x="0" width="58" y="0" height="68"/></clipPath></defs><g clip-path="url(#1928a7549f)"><g clip-path="url(#6cea0e3c1c)"><g transform="matrix(1, 0, 0, 1, 6, 147)"><g clip-path="url(#ce32e35cf5)"><g clip-path="url(#8aaec20c6f)"><g clip-path="url(#d40324da17)"><path fill="#ffffff" d="M 0.195312 0.78125 L 737.757812 0.78125 L 737.757812 455.21875 L 0.195312 455.21875 Z M 0.195312 0.78125 " fill-opacity="1" fill-rule="nonzero"/></g></g></g></g></g></g><g clip-path="url(#9e1bbb6435)"><g clip-path="url(#624d9f92cb)"><g transform="matrix(1, 0, 0, 1, 346, 147)"><g clip-path="url(#6f8bc09891)"><g clip-path="url(#2ae30141ae)"><g clip-path="url(#bff5d09442)"><path fill="#ffffff" d="M 57.585938 67.121094 L 0.40625 67.121094 L 0.40625 0.785156 L 57.585938 0.785156 Z M 57.585938 67.121094 " fill-opacity="1" fill-rule="nonzero"/></g></g></g></g></g></g></svg>