<svg xmlns="http://www.w3.org/2000/svg" xmlns:xlink="http://www.w3.org/1999/xlink" width="2000" zoomAndPan="magnify" viewBox="0 0 1500 1349.999938" height="1800" preserveAspectRatio="xMidYMid meet" version="1.0"><defs><clipPath id="c0b80f8631"><path d="M 0.960938 1.070312 L 1482 1.070312 L 1482 912.929688 L 0.960938 912.929688 Z M 0.960938 1.070312 " clip-rule="nonzero"/></clipPath><clipPath id="5d514e285c"><path d="M 6.871094 11.503906 C 10.125 17.175781 19.769531 33.949219 28.3125 48.738281 C 36.855469 63.550781 48.175781 83.339844 53.460938 92.71875 C 58.75 102.101562 66.167969 115.214844 69.925781 121.890625 L 76.769531 134 L 330.734375 134.882812 C 358.613281 189.132812 384.167969 237.996094 405.511719 278.460938 C 426.882812 318.949219 467.730469 396.480469 496.328125 450.753906 C 524.898438 505.050781 550.121094 552.695312 552.34375 556.640625 C 554.59375 560.613281 566.273438 582.414062 578.332031 605.101562 C 590.394531 627.808594 610.277344 665.496094 622.53125 688.828125 L 644.808594 731.257812 C 658.160156 707.207031 667.160156 690.144531 673.40625 677.796875 C 679.648438 665.449219 711.621094 604.476562 744.425781 542.285156 C 777.257812 480.117188 805.925781 425.605469 808.152344 421.152344 C 810.378906 416.703125 826.554688 386.023438 844.070312 352.953125 C 861.585938 319.882812 882.140625 281.117188 889.75 266.808594 C 897.359375 252.5 907.652344 233.113281 912.628906 223.734375 C 917.605469 214.355469 922.175781 204.878906 922.773438 202.652344 L 923.875 198.609375 C 868.933594 198.632812 844.09375 199.113281 833.253906 199.710938 L 813.511719 200.808594 C 790.132812 245.703125 759.550781 303.945312 730.476562 359.222656 C 701.402344 414.5 674.671875 465.183594 671.082031 471.835938 C 667.492188 478.488281 664.144531 483.96875 663.640625 483.96875 C 663.140625 483.992188 648.0625 455.945312 630.140625 421.632812 C 612.191406 387.316406 589.292969 343.070312 579.21875 323.328125 C 569.144531 303.585938 550.621094 267.667969 538.035156 243.476562 C 525.449219 219.285156 507.789062 185.160156 498.765625 167.644531 C 489.746094 150.128906 482.902344 135.386719 483.570312 134.882812 C 484.21875 134.40625 540.761719 134 609.203125 134 L 733.636719 134 C 726.382812 118.015625 720.664062 104.875 716.261719 94.515625 C 711.859375 84.152344 704.726562 67.59375 700.46875 57.710938 C 696.1875 47.851562 688.792969 31.078125 684.003906 20.429688 L 675.320312 1.070312 L 0.960938 1.191406 Z M 803.796875 5.234375 C 802.933594 7.460938 795.972656 23.398438 788.3125 40.675781 C 780.632812 57.949219 771.324219 79.34375 767.617188 88.222656 C 763.90625 97.125 757.996094 110.859375 754.476562 118.730469 L 748.089844 133.089844 C 957.398438 133.855469 1001.046875 134.621094 1001.046875 135.792969 C 1001.046875 136.773438 993.894531 151.109375 985.160156 167.644531 C 976.425781 184.179688 954.910156 225.171875 937.371094 258.71875 C 919.855469 292.292969 901.476562 327.421875 896.546875 336.800781 C 891.617188 346.183594 873.238281 380.902344 855.722656 413.972656 C 838.207031 447.046875 802.742188 514.480469 776.898438 563.820312 C 751.078125 613.1875 729.039062 655.183594 727.917969 657.144531 C 726.816406 659.132812 712.695312 685.574219 696.570312 715.941406 C 680.441406 746.285156 667.230469 771.9375 667.230469 772.917969 C 667.230469 773.898438 676.394531 791.871094 687.617188 812.855469 C 698.816406 833.816406 715.570312 864.925781 724.851562 881.988281 C 734.113281 899.027344 742.105469 912.953125 742.609375 912.929688 C 743.113281 912.90625 756.226562 888.832031 771.777344 859.496094 C 787.308594 830.132812 879.507812 655.089844 976.617188 470.496094 L 1153.214844 134.882812 L 1408.449219 134 C 1420.582031 112.4375 1426.945312 100.929688 1430.4375 94.515625 C 1433.933594 88.101562 1439.007812 78.816406 1441.710938 73.863281 C 1444.414062 68.933594 1449.871094 59.242188 1453.84375 52.328125 C 1457.816406 45.4375 1465.328125 32.515625 1470.519531 23.613281 C 1475.714844 14.734375 1480.453125 6.046875 1481.003906 4.324219 C 1481.984375 1.359375 1465.113281 1.191406 1143.691406 1.191406 L 805.351562 1.191406 Z M 803.796875 5.234375 " clip-rule="nonzero"/></clipPath><clipPath id="da0efb21bc"><path d="M 0.960938 0.0703125 L 1481 0.0703125 L 1481 911.929688 L 0.960938 911.929688 Z M 0.960938 0.0703125 " clip-rule="nonzero"/></clipPath><clipPath id="40d263baa1"><path d="M 6.871094 10.503906 C 10.125 16.175781 19.769531 32.949219 28.3125 47.738281 C 36.855469 62.550781 48.175781 82.339844 53.460938 91.71875 C 58.75 101.101562 66.167969 114.214844 69.925781 120.890625 L 76.769531 133 L 330.734375 133.882812 C 358.613281 188.132812 384.167969 236.996094 405.511719 277.460938 C 426.882812 317.949219 467.730469 395.480469 496.328125 449.753906 C 524.898438 504.050781 550.121094 551.695312 552.34375 555.640625 C 554.59375 559.613281 566.273438 581.414062 578.332031 604.101562 C 590.394531 626.808594 610.277344 664.496094 622.53125 687.828125 L 644.808594 730.257812 C 658.160156 706.207031 667.160156 689.144531 673.40625 676.796875 C 679.648438 664.449219 711.621094 603.476562 744.425781 541.285156 C 777.257812 479.117188 805.925781 424.605469 808.152344 420.152344 C 810.378906 415.703125 826.554688 385.023438 844.070312 351.953125 C 861.585938 318.882812 882.140625 280.117188 889.75 265.808594 C 897.359375 251.5 907.652344 232.113281 912.628906 222.734375 C 917.605469 213.355469 922.175781 203.878906 922.773438 201.652344 L 923.875 197.609375 C 868.933594 197.632812 844.09375 198.113281 833.253906 198.710938 L 813.511719 199.808594 C 790.132812 244.703125 759.550781 302.945312 730.476562 358.222656 C 701.402344 413.5 674.671875 464.183594 671.082031 470.835938 C 667.492188 477.488281 664.144531 482.96875 663.640625 482.96875 C 663.140625 482.992188 648.0625 454.945312 630.140625 420.632812 C 612.191406 386.316406 589.292969 342.070312 579.21875 322.328125 C 569.144531 302.585938 550.621094 266.667969 538.035156 242.476562 C 525.449219 218.285156 507.789062 184.160156 498.765625 166.644531 C 489.746094 149.128906 482.902344 134.386719 483.570312 133.882812 C 484.21875 133.40625 540.761719 133 609.203125 133 L 733.636719 133 C 726.382812 117.015625 720.664062 103.875 716.261719 93.515625 C 711.859375 83.152344 704.726562 66.59375 700.46875 56.710938 C 696.1875 46.851562 688.792969 30.078125 684.003906 19.429688 L 675.320312 0.0703125 L 0.960938 0.191406 Z M 803.796875 4.234375 C 802.933594 6.460938 795.972656 22.398438 788.3125 39.675781 C 780.632812 56.949219 771.324219 78.34375 767.617188 87.222656 C 763.90625 96.125 757.996094 109.859375 754.476562 117.730469 L 748.089844 132.089844 C 957.398438 132.855469 1001.046875 133.621094 1001.046875 134.792969 C 1001.046875 135.773438 993.894531 150.109375 985.160156 166.644531 C 976.425781 183.179688 954.910156 224.171875 937.371094 257.71875 C 919.855469 291.292969 901.476562 326.421875 896.546875 335.800781 C 891.617188 345.183594 873.238281 379.902344 855.722656 412.972656 C 838.207031 446.046875 802.742188 513.480469 776.898438 562.820312 C 751.078125 612.1875 729.039062 654.183594 727.917969 656.144531 C 726.816406 658.132812 712.695312 684.574219 696.570312 714.941406 C 680.441406 745.285156 667.230469 770.9375 667.230469 771.917969 C 667.230469 772.898438 676.394531 790.871094 687.617188 811.855469 C 698.816406 832.816406 715.570312 863.925781 724.851562 880.988281 C 734.113281 898.027344 742.105469 911.953125 742.609375 911.929688 C 743.113281 911.90625 756.226562 887.832031 771.777344 858.496094 C 787.308594 829.132812 879.507812 654.089844 976.617188 469.496094 L 1153.214844 133.882812 L 1408.449219 133 C 1420.582031 111.4375 1426.945312 99.929688 1430.4375 93.515625 C 1433.933594 87.101562 1439.007812 77.816406 1441.710938 72.863281 C 1444.414062 67.933594 1449.871094 58.242188 1453.84375 51.328125 C 1457.816406 44.4375 1465.328125 31.515625 1470.519531 22.613281 C 1475.714844 13.734375 1480.453125 5.046875 1481.003906 3.324219 C 1481.984375 0.359375 1465.113281 0.191406 1143.691406 0.191406 L 805.351562 0.191406 Z M 803.796875 4.234375 " clip-rule="nonzero"/></clipPath><clipPath id="448d617788"><rect x="0" width="1482" y="0" height="912"/></clipPath><clipPath id="075fe3b039"><path d="M 683.609375 1 L 798.34375 1 L 798.34375 134.183594 L 683.609375 134.183594 Z M 683.609375 1 " clip-rule="nonzero"/></clipPath><clipPath id="6801d87112"><path d="M 740.976562 134.183594 L 683.609375 1.0625 L 798.34375 1.0625 Z M 740.976562 134.183594 " clip-rule="nonzero"/></clipPath><clipPath id="ce51d143e6"><path d="M 0.609375 0 L 115.34375 0 L 115.34375 133.183594 L 0.609375 133.183594 Z M 0.609375 0 " clip-rule="nonzero"/></clipPath><clipPath id="eeb948ef22"><path d="M 57.976562 133.183594 L 0.609375 0.0625 L 115.34375 0.0625 Z M 57.976562 133.183594 " clip-rule="nonzero"/></clipPath><clipPath id="139e59e1e7"><rect x="0" width="116" y="0" height="134"/></clipPath><clipPath id="3360afbad1"><rect x="0" width="1484" y="0" height="914"/></clipPath></defs><g transform="matrix(1, 0, 0, 1, 9, 218)"><g clip-path="url(#3360afbad1)"><g clip-path="url(#c0b80f8631)"><g clip-path="url(#5d514e285c)"><g transform="matrix(1, 0, 0, 1, -0.000000000000001776, 1)"><g clip-path="url(#448d617788)"><g clip-path="url(#da0efb21bc)"><g clip-path="url(#40d263baa1)"><path fill="#ffffff" d="M 0.960938 0.0703125 L 1480.941406 0.0703125 L 1480.941406 911.929688 L 0.960938 911.929688 Z M 0.960938 0.0703125 " fill-opacity="1" fill-rule="nonzero"/></g></g></g></g></g></g><g clip-path="url(#075fe3b039)"><g clip-path="url(#6801d87112)"><g transform="matrix(1, 0, 0, 1, 683, 1)"><g clip-path="url(#139e59e1e7)"><g clip-path="url(#ce51d143e6)"><g clip-path="url(#eeb948ef22)"><path fill="#f61f1f" d="M 115.34375 133.183594 L 0.609375 133.183594 L 0.609375 0.0742188 L 115.34375 0.0742188 Z M 115.34375 133.183594 " fill-opacity="1" fill-rule="nonzero"/></g></g></g></g></g></g></g></g></svg>